# xmcd
#
# Track frame offsets:
#	183
#	13773
#	26460
#	38285
#	49760
#	64598
#	75865
#	88328
#	98810
#	108123
#	117635
#	131853
#	143513
#	151958
#	163958
#	170678
#	184018
#	197668
#	211235
#	222355
#	237353
#	250565
#	258593
#	268610
#	280140
#	293325
#	304675
#	313418
#
# Disc length: 4293 seconds
#
# Revision: 1
# Processed by: cddbd v1.4PL0 Copyright (c) Steve Scherf et al.
# Submitted via: audiograbber 1.81.03
#
DISCID=8710c31c
DTITLE=Willie Nelson - Willie Nelson - His 28 Greatest Hits
DYEAR=1900
DGENRE=
TTITLE0=A Moment Isn't Very Long
TTITLE1=Any Old Arms Won't Do
TTITLE2=End Of Understanding
TTITLE3=Night Life
TTITLE4=And So Will You My Love
TTITLE5=Suffering In Silence
TTITLE6=Shelter Of My Arms
TTITLE7=Blame It On The Times
TTITLE8=One Step Beyond
TTITLE9=Building Heataches
TTITLE10=Will You Remember Mine
TTITLE11=Is There Something On Your Mind
TTITLE12=Slow Down Old World
TTITLE13=I Hope So
TTITLE14=Both Ends Of The Candle
TTITLE15=If You Can't Undo The Wrong, Undo The Right
TTITLE16=Home Is Were You're Happy
TTITLE17=Everything But You
TTITLE18=Dream Baby
TTITLE19=Face Of A Fighter
TTITLE20=No Tomorrow In Sight
TTITLE21=Things To Remember
TTITLE22=Healing Hands Of Time
TTITLE23=Some Other Time
TTITLE24=You'll Always Have Someone
TTITLE25=I'll Stay Around
TTITLE26=Waiting Time
TTITLE27=Why Are You Picking On Me ?
EXTD=
EXTT0=
EXTT1=
EXTT2=
EXTT3=
EXTT4=
EXTT5=
EXTT6=
EXTT7=
EXTT8=
EXTT9=
EXTT10=
EXTT11=
EXTT12=
EXTT13=
EXTT14=
EXTT15=
EXTT16=
EXTT17=
EXTT18=
EXTT19=
EXTT20=
EXTT21=
EXTT22=
EXTT23=
EXTT24=
EXTT25=
EXTT26=
EXTT27=
PLAYORDER=
